<?xml version="1.0" encoding="UTF-8"?>
<svg id="a" data-name="Capa 1" xmlns="http://www.w3.org/2000/svg" viewBox="0 0 326.89 46.27">
  <defs>
    <style>
      .b {
        fill: #83bc38;
      }
    </style>
  </defs>
  <g>
    <path class="b" d="M.02,15.14c0,3.99,.01,7.99,0,11.98-.02,4.3,1.04,8.26,3.76,11.67,4.6,5.77,10.62,8.33,17.89,7.22,7.33-1.12,12.56-5.35,14.92-12.36,4.33-12.89-5.39-22.81-14.53-24.14-2.7-.39-5.41-.19-8.11-.25-.67-.01-1.58-.23-1.96,.11-.43,.39-.13,1.31-.14,2-.02,1.52,.02,3.04-.02,4.55-.02,.57,.11,.75,.72,.75,2.33-.03,4.67-.06,7,.02,4.92,.17,9.39,4.43,10.04,9.31,.78,5.88-2.61,10.35-6.39,11.95-6.95,2.94-13.68-1.37-15.08-7.94-.19-.92-.25-1.85-.25-2.78-.01-6.51-.02-13.03-.03-19.54C7.83,3.76,4.7,.37,.8,.01,.15-.05,0,.14,0,.78,.03,5.57,.02,10.35,.02,15.14Z"/>
    <path class="b" d="M150.23,15.14c0,3.99,.01,7.99,0,11.98-.02,4.3,1.04,8.26,3.76,11.67,4.6,5.77,10.62,8.33,17.89,7.22,7.33-1.12,12.56-5.35,14.92-12.36,4.33-12.89-5.39-22.81-14.53-24.14-2.7-.39-5.41-.19-8.11-.25-.67-.01-1.58-.23-1.96,.11-.43,.39-.13,1.31-.14,2-.02,1.52,.02,3.04-.02,4.55-.02,.57,.11,.75,.72,.75,2.33-.03,4.67-.06,7,.02,4.92,.17,9.39,4.43,10.04,9.31,.78,5.88-2.61,10.35-6.39,11.95-6.95,2.94-13.68-1.37-15.08-7.94-.19-.92-.25-1.85-.25-2.78-.01-6.51-.02-13.03-.03-19.54,0-3.92-3.14-7.31-7.04-7.67-.65-.06-.8,.13-.8,.77,.03,4.79,.02,9.57,.02,14.36Z"/>
    <path class="b" d="M78.02,36c0,3.22-.01,6.44,.01,9.67,0,.53-.17,.61-.64,.57-3.95-.28-7.23-3.77-7.24-7.73,0-3.67,.01-7.33,0-11-.03-4.96-3.62-9.52-8.4-10.59-7.73-1.74-13.38,4.56-13.4,10.58-.01,5.48,3.39,9.96,8.5,11.11,.75,.17,1.52,.23,2.29,.23,2.17,0,4.34,0,6.51-.01,.43,0,.56,.11,.55,.54-.02,2.12-.01,4.25-.01,6.37,0,.26,.04,.51-.37,.5-2.89-.07-5.79,.14-8.68-.12-3.91-.35-7.31-1.9-10.25-4.48-3.18-2.8-5.37-6.19-6.05-10.42-1.22-7.62,1.27-13.79,7.44-18.39,7.32-5.47,17.58-4.63,24.13,1.8,3.79,3.71,5.69,8.15,5.6,13.46-.04,2.64,0,5.28,0,7.92Z"/>
    <path class="b" d="M147.47,27.29c0-1.78-.26-3.53-.85-5.22-4.72-13.45-20.89-16.65-30.29-8.07-.83,.75-1.58,1.54-2.26,2.37-6.66-8.47-19.3-9.56-27.18-2.37-3.77,3.44-6.05,7.6-6.23,12.75-.11,3.01-.02,6.02-.02,9.03h0c0,1.61,0,3.22,0,4.83s0,3.22,0,4.83q0,.88,.89,.77c4.01-.5,6.88-3.75,6.88-7.79,0-3.57,.02-7.14,0-10.72-.05-6.09,5.69-12.6,13.58-10.76,4.17,.97,7.48,4.8,8.16,9.19-.01,.2-.03,.4-.03,.61-.11,3.01-.02,6.02-.02,9.03h0c0,1.61,0,3.22,0,4.83,0,1.61,0,3.22,0,4.83,0,.88,7.98,.73,7.98,.12-.02-6.09,0-12.19-.02-18.28,0-.45-.02-.89-.05-1.33,.93-5.5,6.3-10.67,13.44-9,4.67,1.09,8.26,5.76,8.28,10.78,.02,3.64,0,7.28,0,10.93,0,3.87,3.18,7.26,7.04,7.58,.57,.05,.75-.06,.75-.67-.02-6.09,0-12.19-.02-18.28Z"/>
    <path class="b" d="M208.67,46.27c-2.55,0-4.95-.49-7.2-1.46-2.25-.97-4.21-2.29-5.87-3.96-1.66-1.66-2.98-3.62-3.96-5.87-.98-2.25-1.46-4.65-1.46-7.2s.49-4.94,1.46-7.18c.97-2.23,2.29-4.19,3.96-5.87,1.66-1.68,3.62-3.01,5.87-3.98,2.25-.97,4.65-1.46,7.2-1.46s4.95,.49,7.2,1.46c2.25,.98,4.21,2.3,5.87,3.98,1.66,1.68,2.98,3.64,3.96,5.87,.97,2.23,1.46,4.63,1.46,7.18s-.49,4.95-1.46,7.2c-.97,2.25-2.29,4.21-3.96,5.87-1.66,1.66-3.62,2.98-5.87,3.96-2.25,.97-4.65,1.46-7.2,1.46Zm0-29.06c-1.47,0-2.84,.28-4.12,.83-1.28,.55-2.39,1.31-3.35,2.27-.96,.96-1.72,2.08-2.27,3.37-.56,1.29-.83,2.65-.83,4.08s.28,2.84,.83,4.13c.55,1.29,1.31,2.41,2.27,3.37,.96,.96,2.08,1.71,3.35,2.27,1.27,.55,2.65,.83,4.12,.83s2.84-.28,4.12-.83c1.27-.55,2.39-1.31,3.35-2.27,.96-.96,1.72-2.08,2.27-3.37,.55-1.29,.83-2.66,.83-4.13s-.28-2.8-.83-4.08c-.56-1.29-1.31-2.41-2.27-3.37-.96-.96-2.08-1.71-3.35-2.27-1.28-.55-2.65-.83-4.12-.83Z"/>
    <path class="b" d="M248.33,46.27c-2.55,0-4.95-.49-7.2-1.46-2.25-.97-4.21-2.29-5.87-3.96s-2.98-3.62-3.96-5.87c-.98-2.25-1.46-4.65-1.46-7.2s.49-4.94,1.46-7.18c.97-2.23,2.29-4.19,3.96-5.87,1.66-1.68,3.62-3.01,5.87-3.98,2.25-.97,4.65-1.46,7.2-1.46s4.95,.49,7.2,1.46c2.25,.98,4.21,2.3,5.87,3.98,1.66,1.68,2.98,3.64,3.96,5.87,.97,2.23,1.46,4.63,1.46,7.18s-.49,4.95-1.46,7.2c-.97,2.25-2.29,4.21-3.96,5.87-1.66,1.66-3.62,2.98-5.87,3.96-2.25,.97-4.65,1.46-7.2,1.46Zm0-29.06c-1.47,0-2.84,.28-4.12,.83-1.28,.55-2.39,1.31-3.35,2.27-.96,.96-1.72,2.08-2.27,3.37-.56,1.29-.83,2.65-.83,4.08s.28,2.84,.83,4.13c.55,1.29,1.31,2.41,2.27,3.37,.96,.96,2.08,1.71,3.35,2.27,1.27,.55,2.65,.83,4.12,.83s2.84-.28,4.12-.83c1.27-.55,2.39-1.31,3.35-2.27,.96-.96,1.72-2.08,2.27-3.37,.55-1.29,.83-2.66,.83-4.13s-.28-2.8-.83-4.08c-.56-1.29-1.31-2.41-2.27-3.37-.96-.96-2.08-1.71-3.35-2.27-1.28-.55-2.65-.83-4.12-.83Z"/>
  </g>
  <g>
    <path class="b" d="M305.84,32.03c0-.89-.13-1.77-.41-2.61-2.28-6.72-10.09-8.32-14.63-4.03-.4,.38-.76,.77-1.09,1.18-3.22-4.23-9.32-4.78-13.13-1.18-1.82,1.72-2.92,3.8-3.01,6.37-.05,1.5,0,3.01,0,4.51h0c0,.8,0,1.61,0,2.41s0,1.61,0,2.41q0,.44,.43,.38c1.94-.25,3.32-1.87,3.32-3.89,0-1.78,.01-3.57,0-5.35-.02-3.04,2.75-6.3,6.56-5.37,2.01,.49,3.61,2.4,3.94,4.59,0,.1-.01,.2-.02,.3-.05,1.5,0,3.01,0,4.51h0c0,.8,0,1.61,0,2.41s0,1.61,0,2.41c0,.44,3.85,.36,3.85,.06-.01-3.04,0-6.09,0-9.13,0-.22,0-.44-.02-.67,.45-2.75,3.04-5.33,6.49-4.5,2.25,.54,3.99,2.88,4,5.38,0,1.82,0,3.64,0,5.46,0,1.93,1.53,3.63,3.4,3.79,.28,.02,.36-.03,.36-.34-.01-3.04,0-6.09,0-9.13Z"/>
    <path class="b" d="M310.3,41.51v-2.17c0-1.23,.25-2.4,.74-3.52,.49-1.11,1.19-2.08,2.09-2.91-.87-.8-1.56-1.75-2.06-2.85-.51-1.1-.76-2.3-.76-3.58v-2.14h4.16v2.14c0,1.18,.4,2.18,1.19,3,.79,.82,1.77,1.25,2.94,1.28,1.18-.04,2.17-.47,2.97-1.27,.8-.81,1.19-1.81,1.19-3.01v-2.14h4.14v2.14c0,1.28-.25,2.48-.75,3.58-.5,1.1-1.19,2.05-2.06,2.85,.87,.8,1.56,1.75,2.06,2.86,.5,1.11,.75,2.3,.75,3.57v2.17h-4.14v-2.17c0-1.18-.41-2.19-1.22-3.03-.81-.84-1.79-1.26-2.93-1.26-1.17,.02-2.15,.45-2.95,1.28-.8,.83-1.19,1.83-1.19,3v2.17h-4.16Z"/>
  </g>
</svg>